<svg width="16" height="13" viewBox="0 0 16 13" fill="none" xmlns="http://www.w3.org/2000/svg">
<path d="M16 4.26793V11.3572C16 11.7501 15.8601 12.0864 15.5804 12.3661C15.3006 12.6459 14.9643 12.7858 14.5714 12.7858H1.42857C1.03571 12.7858 0.699405 12.6459 0.419643 12.3661C0.139881 12.0864 0 11.7501 0 11.3572V4.26793C0.261905 4.55959 0.5625 4.81852 0.901786 5.04471C3.05655 6.509 4.53571 7.53578 5.33929 8.12507C5.67857 8.37507 5.95387 8.57001 6.16518 8.70989C6.37649 8.84977 6.65774 8.99263 7.00893 9.13846C7.36012 9.2843 7.6875 9.35721 7.99107 9.35721H8.00893C8.3125 9.35721 8.63988 9.2843 8.99107 9.13846C9.34226 8.99263 9.62351 8.84977 9.83482 8.70989C10.0461 8.57001 10.3214 8.37507 10.6607 8.12507C11.6726 7.39293 13.1548 6.36614 15.1071 5.04471C15.4464 4.81257 15.744 4.55364 16 4.26793ZM16 1.64293C16 2.11316 15.8542 2.56257 15.5625 2.99114C15.2708 3.41971 14.9077 3.78578 14.4732 4.08936C12.2351 5.64293 10.8423 6.61019 10.2946 6.99114C10.2351 7.03281 10.1086 7.12358 9.91518 7.26346C9.72173 7.40334 9.56101 7.51644 9.43304 7.60275C9.30506 7.68906 9.1503 7.78578 8.96875 7.89293C8.7872 8.00007 8.61607 8.08043 8.45536 8.134C8.29464 8.18757 8.14583 8.21435 8.00893 8.21435H7.99107C7.85417 8.21435 7.70536 8.18757 7.54464 8.134C7.38393 8.08043 7.2128 8.00007 7.03125 7.89293C6.8497 7.78578 6.69494 7.68906 6.56696 7.60275C6.43899 7.51644 6.27827 7.40334 6.08482 7.26346C5.89137 7.12358 5.76488 7.03281 5.70536 6.99114C5.16369 6.61019 4.38393 6.06703 3.36607 5.36168C2.34821 4.65632 1.7381 4.23221 1.53571 4.08936C1.16667 3.83936 0.818452 3.49561 0.491071 3.05811C0.16369 2.62061 0 2.21436 0 1.83936C0 1.37507 0.123512 0.988165 0.370536 0.678641C0.61756 0.369117 0.970238 0.214355 1.42857 0.214355H14.5714C14.9583 0.214355 15.2932 0.354236 15.5759 0.633998C15.8586 0.91376 16 1.25007 16 1.64293Z" fill="#6B53F6"/>
</svg>
