<svg width="16" height="15" viewBox="0 0 16 15" fill="none" xmlns="http://www.w3.org/2000/svg">
<path d="M15.1006 4.4109C15.0655 3.61373 14.9366 3.06569 14.7519 2.59081C14.5614 2.08673 14.2683 1.63542 13.8843 1.26026C13.5091 0.879248 13.0549 0.583189 12.5566 0.395662C12.079 0.210997 11.5338 0.0820861 10.7367 0.046939C9.93354 0.00881537 9.67858 0 7.64165 0C5.60473 0 5.34977 0.00881537 4.54963 0.0439624C3.75247 0.0791095 3.20442 0.208135 2.72965 0.392685C2.22546 0.583189 1.77416 0.876272 1.39899 1.26026C1.01798 1.63542 0.722036 2.0897 0.534395 2.58794C0.34973 3.06569 0.220819 3.61076 0.185672 4.40792C0.147548 5.21103 0.138733 5.46599 0.138733 7.50292C0.138733 9.53984 0.147548 9.7948 0.182695 10.5949C0.217842 11.3921 0.346867 11.9401 0.531532 12.415C0.722036 12.9191 1.01798 13.3704 1.39899 13.7456C1.77416 14.1266 2.22844 14.4226 2.72668 14.6102C3.20442 14.7948 3.74949 14.9238 4.54677 14.9589C5.34679 14.9942 5.60186 15.0029 7.63879 15.0029C9.67572 15.0029 9.93067 14.9942 10.7308 14.9589C11.528 14.9238 12.076 14.7948 12.5508 14.6102C13.5591 14.2204 14.3562 13.4232 14.746 12.415C14.9306 11.9373 15.0596 11.3921 15.0948 10.5949C15.1299 9.7948 15.1387 9.53984 15.1387 7.50292C15.1387 5.46599 15.1358 5.21103 15.1006 4.4109ZM13.7496 10.5363C13.7173 11.269 13.5942 11.6647 13.4916 11.9285C13.2395 12.5821 12.7208 13.1008 12.0672 13.3529C11.8034 13.4555 11.4049 13.5785 10.6751 13.6107C9.88374 13.646 9.64641 13.6547 7.64463 13.6547C5.64285 13.6547 5.40255 13.646 4.61408 13.6107C3.88138 13.5785 3.48572 13.4555 3.22194 13.3529C2.89669 13.2327 2.60063 13.0422 2.36032 12.7931C2.1112 12.5498 1.9207 12.2567 1.80049 11.9314C1.69791 11.6677 1.57484 11.269 1.54267 10.5393C1.50741 9.74798 1.49871 9.51054 1.49871 7.50876C1.49871 5.50698 1.50741 5.26667 1.54267 4.47833C1.57484 3.74562 1.69791 3.34996 1.80049 3.08618C1.9207 2.76082 2.1112 2.46487 2.3633 2.22445C2.60647 1.97533 2.89955 1.78483 3.22492 1.66473C3.48869 1.56215 3.88733 1.43908 4.61706 1.4068C5.40838 1.37165 5.64583 1.36283 7.64749 1.36283C9.65225 1.36283 9.88957 1.37165 10.678 1.4068C11.4107 1.43908 11.8064 1.56215 12.0702 1.66473C12.3954 1.78483 12.6915 1.97533 12.9318 2.22445C13.1809 2.46773 13.3714 2.76082 13.4916 3.08618C13.5942 3.34996 13.7173 3.74848 13.7496 4.47833C13.7847 5.26965 13.7935 5.50698 13.7935 7.50876C13.7935 9.51054 13.7847 9.745 13.7496 10.5363Z" fill="#181818"/>
<path d="M7.64154 3.64893C5.51383 3.64893 3.78751 5.37514 3.78751 7.50296C3.78751 9.63079 5.51383 11.357 7.64154 11.357C9.76937 11.357 11.4956 9.63079 11.4956 7.50296C11.4956 5.37514 9.76937 3.64893 7.64154 3.64893ZM7.64154 10.003C6.26119 10.003 5.14153 8.88343 5.14153 7.50296C5.14153 6.1225 6.26119 5.00295 7.64154 5.00295C9.02201 5.00295 10.1416 6.1225 10.1416 7.50296C10.1416 8.88343 9.02201 10.003 7.64154 10.003Z" fill="#181818"/>
<path d="M12.5479 3.49691C12.5479 3.99378 12.145 4.39665 11.6481 4.39665C11.1512 4.39665 10.7483 3.99378 10.7483 3.49691C10.7483 2.99993 11.1512 2.59717 11.6481 2.59717C12.145 2.59717 12.5479 2.99993 12.5479 3.49691Z" fill="#181818"/>
</svg>
