<svg width="24" height="24" viewBox="0 0 24 24" fill="none" xmlns="http://www.w3.org/2000/svg">
<path d="M8.66667 2H4.22222C2.99492 2 2 2.99492 2 4.22222V8.66667C2 9.89397 2.99492 10.8889 4.22222 10.8889H8.66667C9.89397 10.8889 10.8889 9.89397 10.8889 8.66667V4.22222C10.8889 2.99492 9.89397 2 8.66667 2Z" stroke="#6B53F6" stroke-width="3" stroke-linecap="round" stroke-linejoin="round"/>
<path d="M6.4441 10.8889V15.3333C6.4441 15.9227 6.67823 16.4879 7.09497 16.9047C7.51172 17.3214 8.07695 17.5556 8.66632 17.5556H13.1108" stroke="#6B53F6" stroke-width="3" stroke-linecap="round" stroke-linejoin="round"/>
<path d="M19.7777 13.1111H15.3332C14.1059 13.1111 13.111 14.106 13.111 15.3333V19.7778C13.111 21.0051 14.1059 22 15.3332 22H19.7777C21.005 22 21.9999 21.0051 21.9999 19.7778V15.3333C21.9999 14.106 21.005 13.1111 19.7777 13.1111Z" stroke="#6B53F6" stroke-width="3" stroke-linecap="round" stroke-linejoin="round"/>
</svg>
