<svg width="16" height="17" viewBox="0 0 16 17" fill="none" xmlns="http://www.w3.org/2000/svg">
<path d="M14.997 16.5C6.466 16.512 -0.00899062 9.95999 9.37069e-06 1.503C9.37069e-06 0.949999 0.448009 0.5 1.00001 0.5H3.64001C4.135 0.5 4.556 0.864 4.629 1.354C4.80311 2.52905 5.14492 3.67304 5.644 4.751L5.747 4.97299C5.81619 5.12239 5.83108 5.29124 5.78909 5.45043C5.7471 5.60962 5.65087 5.74916 5.517 5.845C4.69901 6.42899 4.38701 7.60399 5.024 8.51999C5.82599 9.67332 6.82695 10.6746 7.98 11.477C8.897 12.113 10.072 11.801 10.655 10.984C10.7507 10.8497 10.8904 10.7531 11.0498 10.7109C11.2092 10.6688 11.3784 10.6836 11.528 10.753L11.749 10.855C12.827 11.355 13.971 11.697 15.146 11.871C15.636 11.944 16 12.365 16 12.861V15.5C16 15.6314 15.9741 15.7615 15.9238 15.8829C15.8735 16.0043 15.7997 16.1146 15.7067 16.2074C15.6138 16.3003 15.5034 16.374 15.382 16.4242C15.2605 16.4743 15.1304 16.5001 14.999 16.5H14.997Z" fill="#6B53F6"/>
</svg>
