<svg width="135" height="94" viewBox="0 0 135 94" fill="none" xmlns="http://www.w3.org/2000/svg">
<path fill-rule="evenodd" clip-rule="evenodd" d="M25.2562 21.174C27.4232 20.6503 29.6382 20.3867 31.86 20.388C49.455 20.388 63.7144 36.684 63.7144 56.778C63.7144 76.878 49.455 93.174 31.86 93.174C14.265 93.174 0 76.884 0 56.778C0 56.19 0.01125 55.596 0.039375 55.008H0C0 24.678 21.6 0 48.15 0V12.216C39.5381 12.216 31.5956 15.564 25.2562 21.174ZM96.5475 21.174C98.6737 20.658 100.879 20.388 103.14 20.388C120.735 20.388 135 36.684 135 56.778C135 76.878 120.735 93.174 103.14 93.174C85.545 93.174 71.2856 76.884 71.2856 56.778C71.2856 56.19 71.2969 55.596 71.325 55.008H71.2856C71.2856 24.678 92.8856 0 119.436 0V12.216C110.818 12.216 102.887 15.564 96.5475 21.174Z" fill="#FF7E1D"/>
</svg>
