<svg width="14" height="17" viewBox="0 0 14 17" fill="none" xmlns="http://www.w3.org/2000/svg">
<path d="M13.5 4.75146C12.3892 2.25146 10.4442 1.00146 7.66667 1.00146C3.5 1.00146 1 3.0848 1 8.50146C1 13.9181 3.91667 16.0015 7.66667 16.0015C11.4167 16.0015 13.5 13.5015 13.5 11.8348C13.5 10.1681 12.6667 7.66813 7.66667 7.66813C5.58333 7.66813 5.16667 8.7098 5.16667 9.75146C5.16667 11.0015 6 11.8348 7.25 11.8348C9.33333 11.8348 10.1667 10.5848 10.1667 7.66813C10.1667 4.75146 8.5 4.3348 7.66667 4.3348C6.83333 4.3348 6.13917 4.6123 5.58333 5.16813" stroke="#181818" stroke-linecap="round" stroke-linejoin="round"/>
</svg>
