<svg width="38" height="30" viewBox="0 0 38 30" fill="none" xmlns="http://www.w3.org/2000/svg">
<path d="M29.6643 3.01335C28.2217 3.02543 26.8082 3.42083 25.5687 4.15904C24.3291 4.89725 23.3081 5.95172 22.6103 7.21441C21.9125 8.47711 21.5628 9.90263 21.5973 11.3449C21.6318 12.7872 22.049 14.1944 22.8064 15.4223L20.8487 16.8837C20.6362 17.0478 20.48 17.2739 20.4016 17.5306C20.3232 17.7874 20.3266 18.0622 20.4113 18.317C20.496 18.5718 20.6578 18.7939 20.8743 18.9527C21.0908 19.1115 21.3513 19.199 21.6197 19.2032H29.6643C40.4086 18.7617 40.404 3.45826 29.6643 3.01335ZM33.1571 9.56974L29.1347 13.5921C29.0735 13.6557 29.0001 13.7063 28.9189 13.7408C28.8377 13.7754 28.7504 13.7932 28.6621 13.7932C28.5738 13.7932 28.4865 13.7754 28.4053 13.7408C28.3241 13.7063 28.2507 13.6557 28.1895 13.5921L26.1783 11.5809C26.0552 11.4551 25.9867 11.2858 25.9876 11.1097C25.9886 10.9337 26.0589 10.7652 26.1834 10.6407C26.3079 10.5162 26.4764 10.4459 26.6525 10.445C26.8285 10.444 26.9978 10.5125 27.1236 10.6356L28.6588 12.1708L32.2118 8.62446C32.3379 8.50291 32.5067 8.43571 32.6819 8.43733C32.8571 8.43894 33.0246 8.50924 33.1484 8.6331C33.2723 8.75697 33.3426 8.9245 33.3442 9.09966C33.3458 9.27482 33.2786 9.44361 33.1571 9.56974ZM19.4811 12.8546C18.9763 14.0501 17.4458 14.0409 16.3168 14.2357C17.08 16.9869 16.7312 17.8406 14.1849 18.6871C15.6203 19.5296 16.2657 21.041 15.0297 22.4479C14.9155 22.5725 14.8511 22.7347 14.8487 22.9037C14.9365 27.0822 10.7334 26.1425 7.71575 26.182C7.38276 26.1852 7.28622 26.2858 7.21297 26.4435C6.76923 27.4146 6.31932 28.3848 5.87891 29.3529C5.82693 29.4712 5.74147 29.5717 5.63307 29.642C5.52466 29.7123 5.39806 29.7493 5.26887 29.7485H0.891213C0.713576 29.748 0.543365 29.6772 0.417757 29.5516C0.292148 29.426 0.22135 29.2557 0.220825 29.0781V0.921731C0.22135 0.744094 0.292148 0.573883 0.417757 0.448274C0.543365 0.322666 0.713576 0.251867 0.891213 0.251343H15.6599C15.7614 0.251983 15.8615 0.275564 15.9526 0.320318C16.0437 0.365073 16.1235 0.429844 16.186 0.50979C16.2485 0.589735 16.2922 0.682785 16.3137 0.78198C16.3352 0.881176 16.334 0.983949 16.3102 1.08261C16.2767 1.23679 15.9415 2.75187 15.9415 2.75187C15.8055 3.32931 15.7902 3.92859 15.8963 4.51224C16.0024 5.0959 16.2277 5.65141 16.5582 6.14405C17.3359 7.37087 18.0733 8.64458 18.7839 9.88483C19.3156 10.7611 20.032 11.8608 19.4811 12.8546Z" fill="url(#paint0_linear_90_200)"/>
<defs>
<linearGradient id="paint0_linear_90_200" x1="0.221013" y1="14.9999" x2="37.721" y2="14.9999" gradientUnits="userSpaceOnUse">
<stop stop-color="#FF81FF"/>
<stop offset="1" stop-color="#F17E4E"/>
</linearGradient>
</defs>
</svg>
