<svg width="38" height="38" viewBox="0 0 38 38" fill="none" xmlns="http://www.w3.org/2000/svg">
<path d="M7.9576 10.7968C8.62444 10.7961 9.28167 10.9559 9.87371 11.2627C10.4658 11.5696 10.9752 12.0145 11.359 12.5598C11.7428 13.1051 11.9897 13.7349 12.0788 14.3957C12.1679 15.0566 12.0965 15.7292 11.8708 16.3567C11.645 16.9841 11.2716 17.5481 10.7819 18.0007C10.2922 18.4534 9.70077 18.7815 9.05753 18.9574C8.41428 19.1332 7.73816 19.1516 7.08631 19.011C6.43446 18.8703 5.82605 18.5748 5.3125 18.1495C4.65864 17.6026 4.18851 16.8681 3.96569 16.0454C3.74287 15.2226 3.77812 14.3512 4.06667 13.5492C4.35521 12.7471 4.88313 12.053 5.57903 11.5607C6.27492 11.0685 7.10521 10.8018 7.9576 10.7968ZM15.6719 23.8883C15.6184 22.7374 15.2446 21.6243 14.5928 20.6742C13.9409 19.7242 13.0367 18.9751 11.9821 18.5111C11.4692 19.0639 10.8479 19.505 10.1568 19.8069C9.46574 20.1088 8.71986 20.2649 7.96574 20.2656C7.21162 20.2662 6.46548 20.1113 5.77391 19.8106C5.08235 19.5099 4.46023 19.0697 3.94642 18.5178C2.88896 18.9767 1.98173 19.7235 1.32817 20.673C0.674607 21.6226 0.301019 22.7367 0.25 23.8883C0.251062 24.7192 0.581582 25.5157 1.16908 26.1032C1.75657 26.6907 2.55308 27.0212 3.38392 27.0222H12.5379C13.3688 27.0212 14.1653 26.6906 14.7528 26.1032C15.3403 25.5157 15.6708 24.7192 15.6719 23.8883ZM25.8839 14.9486C25.8931 16.0446 26.3349 17.0926 27.1132 17.8643C27.8914 18.6361 28.9431 19.0691 30.0391 19.0691C31.1351 19.0691 32.1868 18.636 32.965 17.8642C33.7432 17.0925 34.185 16.0445 34.1942 14.9485C34.1847 13.8527 33.7428 12.805 32.9646 12.0335C32.1863 11.262 31.1349 10.8291 30.039 10.8291C28.9432 10.8291 27.8917 11.262 27.1135 12.0336C26.3353 12.8051 25.8934 13.8528 25.8839 14.9486ZM34.0535 18.5178C33.5377 19.0651 32.9153 19.5011 32.2246 19.7989C31.534 20.0967 30.7897 20.25 30.0376 20.2494C29.2854 20.2488 28.5414 20.0942 27.8513 19.7952C27.1611 19.4963 26.5394 19.0592 26.0245 18.511C24.9678 18.9728 24.0615 19.7213 23.4082 20.6717C22.7549 21.622 22.3808 22.7363 22.3281 23.8883C22.3292 24.7192 22.6597 25.5157 23.2472 26.1032C23.8347 26.6907 24.6312 27.0212 25.4621 27.0222H34.6161C35.4469 27.0212 36.2434 26.6906 36.8309 26.1032C37.4184 25.5157 37.7489 24.7192 37.75 23.8883C37.699 22.7367 37.3254 21.6226 36.6718 20.673C36.0183 19.7235 35.111 18.9767 34.0535 18.5178ZM31.3099 31.3098C28.2446 34.3511 24.1625 36.1506 19.8496 36.3619C15.5368 36.5731 11.2983 35.1812 7.95043 32.4541L10.0033 32.4543C10.1787 32.4508 10.3457 32.3788 10.4685 32.2536C10.5913 32.1284 10.6601 31.96 10.6601 31.7846C10.6601 31.6092 10.5913 31.4408 10.4685 31.3156C10.3457 31.1904 10.1787 31.1184 10.0033 31.115H6.22333C6.04535 31.1162 5.87489 31.1869 5.7483 31.312C5.62171 31.4371 5.549 31.6067 5.54569 31.7846V35.5726C5.5491 35.748 5.62115 35.915 5.74636 36.0378C5.87157 36.1606 6.03996 36.2294 6.21534 36.2294C6.39072 36.2294 6.5591 36.1606 6.68431 36.0378C6.80952 35.915 6.88157 35.748 6.88498 35.5726V33.3032C10.4816 36.3269 15.0791 37.8962 19.774 37.7025C24.4688 37.5088 28.9214 35.5663 32.2568 32.2566C32.3783 32.1302 32.4454 31.9612 32.4436 31.7859C32.4419 31.6106 32.3715 31.4429 32.2475 31.319C32.1235 31.195 31.9559 31.1246 31.7806 31.1229C31.6053 31.1212 31.4363 31.1883 31.3099 31.3098ZM6.69008 6.69001C9.75539 3.64878 13.8375 1.84925 18.1504 1.63799C22.4632 1.42673 26.7017 2.81868 30.0496 5.54576L27.9967 5.5456C27.8213 5.54901 27.6543 5.62106 27.5315 5.74627C27.4087 5.87148 27.3399 6.03987 27.3399 6.21524C27.3399 6.39062 27.4087 6.559 27.5315 6.68422C27.6543 6.80943 27.8213 6.88148 27.9967 6.88489H31.7766C31.9546 6.88371 32.1251 6.81303 32.2517 6.68792C32.3783 6.56281 32.451 6.39319 32.4543 6.21523V2.42725C32.4509 2.25191 32.3788 2.08489 32.2536 1.96209C32.1284 1.83929 31.96 1.7705 31.7846 1.7705C31.6092 1.7705 31.4409 1.83929 31.3157 1.96209C31.1904 2.08489 31.1184 2.25191 31.115 2.42725V4.69666C27.5183 1.67294 22.9208 0.103714 18.226 0.29738C13.5312 0.491047 9.07858 2.4336 5.74319 5.74327C5.62169 5.86966 5.55461 6.03866 5.55635 6.21397C5.55809 6.38928 5.62851 6.55691 5.75249 6.68087C5.87646 6.80483 6.04411 6.87522 6.21942 6.87693C6.39472 6.87863 6.56371 6.81152 6.69008 6.69001Z" fill="url(#paint0_linear_90_190)"/>
<defs>
<linearGradient id="paint0_linear_90_190" x1="0.25" y1="18.9999" x2="37.75" y2="18.9999" gradientUnits="userSpaceOnUse">
<stop stop-color="#FF81FF"/>
<stop offset="1" stop-color="#F17E4E"/>
</linearGradient>
</defs>
</svg>
