<svg width="34" height="38" viewBox="0 0 34 38" fill="none" xmlns="http://www.w3.org/2000/svg">
<path d="M27.5201 17.1786C27.7845 16.6817 28.1524 16.2474 28.5991 15.9049C29.0457 15.5625 29.5607 15.3199 30.1091 15.1936C30.6576 15.0673 31.2268 15.0602 31.7783 15.1727C32.3297 15.2853 32.8506 15.5149 33.3056 15.8461V5.81497C33.3051 5.63754 33.2344 5.46751 33.109 5.34204C32.9835 5.21658 32.8135 5.14586 32.636 5.14534H23.2411C23.3903 4.56655 23.405 3.96129 23.2842 3.37592C23.1634 2.79055 22.9102 2.24058 22.5441 1.76814C22.178 1.29569 21.7086 0.913291 21.1719 0.650216C20.6352 0.38714 20.0454 0.250366 19.4477 0.250366C18.85 0.250366 18.2602 0.38714 17.7235 0.650216C17.1868 0.913291 16.7174 1.29569 16.3513 1.76814C15.9852 2.24058 15.732 2.79055 15.6112 3.37592C15.4904 3.96129 15.5051 4.56655 15.6542 5.14534H6.25933C6.08189 5.14586 5.91187 5.21658 5.7864 5.34204C5.66093 5.46751 5.59022 5.63754 5.5897 5.81497V15.2031C5.01067 15.0544 4.40529 15.0401 3.81989 15.1613C3.23449 15.2826 2.68457 15.5361 2.21219 15.9025C1.73981 16.2689 1.3575 16.7385 1.09449 17.2753C0.831482 17.8122 0.694748 18.4021 0.694748 18.9999C0.694748 19.5977 0.831482 20.1876 1.09449 20.7245C1.3575 21.2613 1.73981 21.7309 2.21219 22.0973C2.68457 22.4637 3.23449 22.7172 3.81989 22.8384C4.40529 22.9597 5.01067 22.9454 5.5897 22.7967V32.1849C5.59022 32.3624 5.66093 32.5324 5.7864 32.6579C5.91187 32.7833 6.08189 32.8541 6.25933 32.8546H15.6542C15.5051 33.4334 15.4903 34.0386 15.6111 34.624C15.732 35.2094 15.9851 35.7593 16.3513 36.2318C16.7174 36.7042 17.1868 37.0866 17.7235 37.3497C18.2602 37.6128 18.8499 37.7495 19.4477 37.7495C20.0454 37.7495 20.6351 37.6128 21.1718 37.3497C21.7085 37.0866 22.1779 36.7042 22.5441 36.2318C22.9102 35.7593 23.1634 35.2094 23.2842 34.624C23.405 34.0386 23.3903 33.4334 23.2411 32.8546H32.636C32.8134 32.8541 32.9835 32.7833 33.1089 32.6579C33.2344 32.5324 33.3051 32.3624 33.3056 32.1849V22.1606C32.5901 22.676 31.7219 22.9355 30.8409 22.8972C29.9599 22.859 29.1174 22.5253 28.4492 21.9499C27.781 21.3745 27.326 20.5909 27.1574 19.7253C26.9889 18.8598 27.1166 17.9627 27.5201 17.1786ZM26.2813 12.5581L23.1876 25.7431C23.1535 25.8824 23.0756 26.0071 22.9654 26.0988C22.8552 26.1906 22.7184 26.2445 22.5753 26.2527C22.4321 26.261 22.2901 26.2231 22.1701 26.1446C22.0501 26.0661 21.9584 25.9512 21.9086 25.8167L19.4444 18.8393L16.9868 25.8168C16.9382 25.9526 16.847 26.069 16.7268 26.1486C16.6065 26.2282 16.4637 26.2668 16.3197 26.2585C16.1758 26.2502 16.0384 26.1955 15.928 26.1026C15.8177 26.0097 15.7405 25.8836 15.7078 25.7431L12.6141 12.5581C12.5742 12.385 12.6046 12.203 12.6988 12.0523C12.793 11.9016 12.9432 11.7945 13.1163 11.7546C13.2895 11.7146 13.4714 11.7451 13.6221 11.8393C13.7728 11.9334 13.8799 12.0836 13.9199 12.2568L16.4846 23.2119L18.8149 16.6027C18.8628 16.4735 18.9491 16.362 19.0623 16.2833C19.1754 16.2046 19.3099 16.1624 19.4477 16.1624C19.5855 16.1624 19.72 16.2046 19.8331 16.2833C19.9463 16.362 20.0326 16.4735 20.0805 16.6027L22.4108 23.2119L24.9755 12.2568C25.0176 12.0859 25.1253 11.9385 25.2752 11.8463C25.4252 11.7542 25.6053 11.7247 25.7768 11.7643C25.9483 11.8039 26.0973 11.9093 26.1917 12.0578C26.2861 12.2064 26.3183 12.3861 26.2813 12.5581Z" fill="url(#paint0_linear_90_171)"/>
<defs>
<linearGradient id="paint0_linear_90_171" x1="0.694065" y1="19" x2="33.3059" y2="19" gradientUnits="userSpaceOnUse">
<stop stop-color="#FF81FF"/>
<stop offset="1" stop-color="#F17E4E"/>
</linearGradient>
</defs>
</svg>
