<svg width="16" height="15" viewBox="0 0 16 15" fill="none" xmlns="http://www.w3.org/2000/svg">
<path fill-rule="evenodd" clip-rule="evenodd" d="M12.9532 2.1816C12.2613 1.48847 11.4381 0.938876 10.5313 0.564649C9.62445 0.190422 8.65202 -0.000994497 7.67033 0.0014887C3.55387 0.0014887 0.202793 3.33583 0.201129 7.43441C0.201129 8.7443 0.544722 10.0227 1.1978 11.1505L0.138733 15.0015L4.09796 13.9673C5.19313 14.5606 6.42008 14.8718 7.667 14.8723H7.67033C11.786 14.8723 15.137 11.538 15.1387 7.43938C15.1415 6.46274 14.9498 5.49524 14.5747 4.59278C14.1996 3.69032 13.6485 2.8708 12.9532 2.1816ZM7.67033 13.6179H7.66784C6.55596 13.618 5.46454 13.3203 4.50811 12.7559L4.28182 12.6218L1.93241 13.2353L2.55886 10.9559L2.41161 10.7224C1.78997 9.73742 1.46089 8.59756 1.46236 7.43441C1.46402 4.02803 4.24854 1.25673 7.67283 1.25673C8.48834 1.25493 9.29612 1.41412 10.0494 1.72509C10.8027 2.03606 11.4865 2.49263 12.0613 3.06839C12.6392 3.64139 13.0973 4.32271 13.409 5.07296C13.7207 5.82321 13.8799 6.62751 13.8775 7.43938C13.8758 10.8458 11.0913 13.6179 7.67033 13.6179ZM11.0755 8.99021C10.8883 8.89665 9.97149 8.44788 9.80011 8.38578C9.62956 8.32368 9.5056 8.29304 9.38081 8.47851C9.25602 8.66398 8.89828 9.08212 8.7893 9.20632C8.68031 9.33052 8.57133 9.34542 8.38497 9.25269C8.19862 9.15995 7.59712 8.96372 6.88414 8.33113C6.32924 7.83847 5.95486 7.23072 5.84588 7.04442C5.73689 6.85812 5.83423 6.75794 5.92824 6.6652C6.01226 6.5824 6.11459 6.44827 6.20777 6.3398C6.30095 6.23133 6.33173 6.15433 6.39413 6.03013C6.45652 5.90593 6.42574 5.79746 6.37832 5.70473C6.33173 5.61116 5.95819 4.69705 5.80261 4.32528C5.65203 3.96511 5.49812 4.01313 5.38331 4.00816C5.26441 4.00332 5.14541 4.00111 5.02641 4.00154C4.93178 4.00394 4.83867 4.02577 4.75292 4.06566C4.66716 4.10556 4.59062 4.16266 4.52808 4.23338C4.35669 4.41968 3.875 4.86845 3.875 5.78256C3.875 6.69667 4.54388 7.58014 4.63706 7.70434C4.73024 7.82854 5.9532 9.70395 7.82507 10.5088C8.271 10.7 8.61875 10.8143 8.88913 10.9004C9.33589 11.042 9.74271 11.0213 10.0647 10.9741C10.4232 10.9211 11.1687 10.5253 11.3242 10.0914C11.4798 9.65758 11.4798 9.28581 11.4332 9.20798C11.3866 9.13015 11.261 9.08295 11.0755 8.99021Z" fill="#181818"/>
</svg>
