<svg width="17" height="13" viewBox="0 0 17 13" fill="none" xmlns="http://www.w3.org/2000/svg">
<path d="M1.53074 10.2426C1.00806 7.77591 1.00806 5.22711 1.53074 2.76046C1.59942 2.50997 1.73212 2.28166 1.91578 2.098C2.09944 1.91434 2.32774 1.78164 2.57824 1.71297C6.59122 1.04815 10.6862 1.04815 14.6992 1.71297C14.9497 1.78164 15.178 1.91434 15.3617 2.098C15.5454 2.28166 15.678 2.50997 15.7467 2.76046C16.2694 5.22711 16.2694 7.77591 15.7467 10.2426C15.678 10.493 15.5454 10.7214 15.3617 10.905C15.178 11.0887 14.9497 11.2214 14.6992 11.29C10.6863 11.955 6.59121 11.955 2.57824 11.29C2.32774 11.2214 2.09944 11.0887 1.91578 10.905C1.73212 10.7214 1.59942 10.493 1.53074 10.2426Z" stroke="#181818" stroke-linecap="round" stroke-linejoin="round"/>
<path d="M7.14231 8.74609L10.8834 6.50146L7.14231 4.25684V8.74609Z" stroke="#181818" stroke-linecap="round" stroke-linejoin="round"/>
</svg>
